<svg width="21" height="20" viewBox="0 0 21 20" fill="none" xmlns="http://www.w3.org/2000/svg">
<path fill-rule="evenodd" clip-rule="evenodd" d="M1.44035 0.930236C2.02699 0.358289 2.97812 0.358289 3.56476 0.930236L20.56 17.4998C21.1467 18.0718 21.1467 18.9991 20.56 19.571C19.9734 20.143 19.0223 20.143 18.4356 19.571L1.44035 3.00144C0.853711 2.42949 0.853711 1.50218 1.44035 0.930236Z" fill="white"/>
<path fill-rule="evenodd" clip-rule="evenodd" d="M0.431365 19.4258C-0.150478 18.8492 -0.142732 17.9219 0.448665 17.3547L17.5818 0.920561C18.1732 0.353291 19.1243 0.360843 19.7061 0.937428C20.2879 1.51401 20.2802 2.44129 19.6888 3.00856L2.5557 19.4427C1.96431 20.0099 1.01321 20.0024 0.431365 19.4258Z" fill="white"/>
</svg>
