<svg  width="120" height="120" viewBox="-10 40 120 120" fill="none" xmlns="http://www.w3.org/2000/svg">
<g clip-path="url(#clip0_1_220)" filter="url(#filter0_d_1_220)">
<path d="M63.0021 101.995C62.8703 101.996 62.7396 101.971 62.6175 101.921C62.4954 101.871 62.3844 101.798 62.2907 101.705L47.9722 87.4014L33.6537 101.705C33.4621 101.869 33.2155 101.955 32.9633 101.945C32.7111 101.935 32.4719 101.831 32.2935 101.653C32.115 101.475 32.0105 101.236 32.0007 100.984C31.991 100.732 32.0768 100.486 32.2409 100.295L47.2708 85.2909C47.4586 85.1046 47.7125 85 47.9773 85C48.242 85 48.4959 85.1046 48.6837 85.2909L63.7136 100.295C63.8514 100.435 63.9448 100.613 63.982 100.806C64.0192 100.999 63.9985 101.199 63.9226 101.381C63.8467 101.562 63.7189 101.717 63.5552 101.827C63.3915 101.936 63.1991 101.995 63.0021 101.995Z" fill="#1C1C1E"/>
<path d="M47.9731 90.7828L35.9492 102.826V114.999C35.9492 115.53 36.1604 116.039 36.5362 116.414C36.912 116.789 37.4217 117 37.9532 117H44.9672V106.997H50.9791V117H57.9931C58.5246 117 59.0343 116.789 59.4101 116.414C59.7859 116.039 59.9971 115.53 59.9971 114.999V102.756L47.9731 90.7828Z" fill="#1C1C1E"/>
</g>
<defs>
<filter id="filter0_d_1_220"  filterUnits="userSpaceOnUse" color-interpolation-filters="sRGB">
<feColorMatrix type="matrix" values="0 0 0 0 0.00749999 0 0 0 0 0 0 0 0 0 0.375 0 0 0 0.25 0"/>
<feBlend mode="normal" in="SourceGraphic" in2="effect1_dropShadow_1_220" result="shape"/>
</filter>

</defs>
</svg>
