<svg width="240" height="95" viewBox="0 0 240 95" fill="none" xmlns="http://www.w3.org/2000/svg">
<!-- <rect width="1440" height="105" fill="#141414"/> -->
<path d="M55.7866 50.0372C55.124 48.1519 53.0679 42.1564 56.8691 37.1128C60.5185 32.2709 67.8302 34.2277 70.4452 35.3985C65.7519 35.7396 56.2487 39.1447 55.7866 50.0372Z" fill="#FF5C00"/>
<path d="M59.972 56.9861C58.0054 56.6163 51.7762 55.3955 49.3017 49.5888C46.9254 44.0124 52.2791 38.6691 54.6025 36.9934C52.5507 41.2217 50.7532 51.14 59.972 56.9861Z" fill="#FF5C00"/>
<path d="M68.028 57.0254C66.7241 58.5402 62.5503 63.3163 56.2753 62.5517C50.2503 61.8179 48.2923 54.5172 48 51.6714C50.6428 55.5585 58.3479 62.0718 68.028 57.0254Z" fill="#FF5C00"/>
<path d="M72.1359 49.9628C72.7986 51.848 74.8547 57.8443 71.0534 62.8871C67.404 67.729 60.0923 65.7722 57.4774 64.6014C62.1714 64.2603 71.6739 60.8552 72.1359 49.9628Z" fill="#FF5C00"/>
<path d="M68.028 42.9402C69.9946 43.31 76.2238 44.5308 78.6983 50.3375C81.0739 55.9132 75.7201 61.2564 73.3975 62.9322C75.4486 58.7039 77.2461 48.7855 68.028 42.9402Z" fill="#FF5C00"/>
<path d="M59.972 42.8673C61.2759 41.3525 65.4497 36.5764 71.7247 37.341C77.7498 38.0748 79.7077 45.3748 80 48.2213C77.3572 44.3342 69.6521 37.8209 59.972 42.8673Z" fill="#FF5C00"/>
<path d="M103.387 57.9672C102.8 58.531 102.123 58.9595 101.356 59.2527C100.611 59.5459 99.81 59.6925 98.9524 59.6925C97.2598 59.6925 95.8832 59.1851 94.8225 58.1701C93.7844 57.1327 93.2653 55.7907 93.2653 54.1443V45.2806H89V42.608H93.2653V37.3303H96.1089V42.608H102.507V45.2806H96.1089V53.8398C96.1089 54.8322 96.3684 55.6103 96.8875 56.1741C97.4291 56.7154 98.1625 56.9861 99.0878 56.9861C100.149 56.9861 101.119 56.5801 101.999 55.7682L103.387 57.9672ZM113.062 59.6925C111.708 59.6925 110.489 59.3881 109.406 58.7791C108.323 58.1701 107.477 57.3357 106.867 56.2756C106.258 55.193 105.953 53.9751 105.953 52.6219V42.608H108.797V52.6557C108.797 53.9187 109.192 54.9562 109.982 55.7682C110.794 56.5801 111.821 56.9861 113.062 56.9861C114.326 56.9861 115.364 56.5801 116.177 55.7682C116.989 54.9337 117.395 53.8962 117.395 52.6557V42.608H120.239V52.6219C120.239 53.9751 119.923 55.193 119.291 56.2756C118.682 57.3357 117.824 58.1701 116.718 58.7791C115.635 59.3881 114.416 59.6925 113.062 59.6925ZM132.943 45.2468H132.842C131.33 45.2468 130.021 45.5738 128.915 46.2279C127.832 46.8594 127.076 47.739 126.647 48.8667V59.3881H123.803V42.608L126.647 42.608V45.0438C127.301 44.2318 128.136 43.5891 129.152 43.1154C130.19 42.6418 131.307 42.405 132.503 42.405H132.605L132.943 45.2468ZM143.768 42.2697C145.302 42.2697 146.724 42.6643 148.033 43.4537C149.365 44.2431 150.414 45.3031 151.181 46.6338C151.949 47.9645 152.332 49.4192 152.332 50.998C152.332 52.5768 151.949 54.0315 151.181 55.3622C150.414 56.6929 149.365 57.7529 148.033 58.5423C146.724 59.3091 145.302 59.6925 143.768 59.6925C141.579 59.6925 139.863 58.9144 138.622 57.3582V59.3881H135.779V33H138.622V44.604C139.863 43.0478 141.579 42.2697 143.768 42.2697ZM143.666 56.9861C144.727 56.9861 145.697 56.7154 146.577 56.1741C147.48 55.6328 148.191 54.9111 148.71 54.009C149.229 53.0842 149.489 52.0806 149.489 50.998C149.489 49.9154 149.229 48.923 148.71 48.0209C148.191 47.0962 147.48 46.3632 146.577 45.8219C145.697 45.2806 144.727 45.0099 143.666 45.0099C142.605 45.0099 141.624 45.2919 140.721 45.8557C139.818 46.397 139.119 47.1413 138.622 48.0886V53.9075C139.119 54.8547 139.818 55.6103 140.721 56.1741C141.624 56.7154 142.605 56.9861 143.666 56.9861ZM158.648 59.3881H155.804V42.608H158.648V59.3881ZM158.648 37.9393H155.804V33H158.648V37.9393ZM169.923 42.2697C171.232 42.2697 172.406 42.6192 173.444 43.3184C174.482 43.995 175.294 44.8972 175.881 46.0249C176.468 47.1526 176.761 48.3366 176.761 49.5771V59.3881H173.918V49.5771C173.918 48.7426 173.715 47.9758 173.308 47.2766C172.925 46.5774 172.383 46.0249 171.683 45.6189C171.006 45.2129 170.262 45.0099 169.449 45.0099C168.524 45.0099 167.678 45.2693 166.91 45.7881C166.166 46.2842 165.624 46.9496 165.285 47.7841V59.3881H162.442V42.608H165.285V44.3672C165.872 43.6905 166.561 43.1718 167.35 42.8109C168.14 42.4501 168.998 42.2697 169.923 42.2697ZM193.446 42.608H196.29V59.3881H193.446V57.3582C192.205 58.9144 190.49 59.6925 188.301 59.6925C186.766 59.6925 185.333 59.3091 184.002 58.5423C182.693 57.7529 181.655 56.6929 180.887 55.3622C180.12 54.0315 179.737 52.5768 179.737 50.998C179.737 49.4192 180.12 47.9645 180.887 46.6338C181.655 45.3031 182.693 44.2431 184.002 43.4537C185.333 42.6643 186.766 42.2697 188.301 42.2697C190.49 42.2697 192.205 43.0478 193.446 44.604V42.608ZM188.403 56.9861C189.441 56.9861 190.411 56.7154 191.314 56.1741C192.217 55.6328 192.927 54.8998 193.446 53.9751V48.0209C192.927 47.0962 192.217 46.3632 191.314 45.8219C190.411 45.2806 189.441 45.0099 188.403 45.0099C187.342 45.0099 186.36 45.2806 185.457 45.8219C184.577 46.3632 183.878 47.0962 183.359 48.0209C182.84 48.923 182.58 49.9154 182.58 50.998C182.58 52.0806 182.84 53.0842 183.359 54.009C183.878 54.9111 184.577 55.6328 185.457 56.1741C186.36 56.7154 187.342 56.9861 188.403 56.9861ZM209.452 45.2468H209.35C207.839 45.2468 206.529 45.5738 205.423 46.2279C204.341 46.8594 203.584 47.739 203.156 48.8667V59.3881H200.312V42.608H203.156V45.0438C203.81 44.2318 204.644 43.5891 205.66 43.1154C206.698 42.6418 207.816 42.405 209.012 42.405H209.114L209.452 45.2468ZM220.435 53.6706L225.92 42.608H229L216.983 67H213.868L218.878 56.8169L211.736 42.608H214.883L220.435 53.6706Z" fill="white"/>
<!-- <path d="M403.5 52.5C403.5 42.0066 412.007 33.5 422.5 33.5H503.5V71.5H422.5C412.007 71.5 403.5 62.9934 403.5 52.5Z" fill="white"/>
<path d="M425.976 47.5H428.692L424.702 52.75L428.692 58H425.976L422.798 53.814H421.776V58H419.508V47.5H421.776V51.686H422.798L425.976 47.5ZM439.509 58H437.157L436.163 55.536H431.879L430.871 58H428.533L432.901 47.5H435.127L439.509 58ZM434.021 50.244L432.677 53.576H435.365L434.021 50.244ZM438.26 47.5H447.654V49.642H444.098V58H441.83V49.642H438.26V47.5ZM457.392 58H455.04L454.046 55.536H449.762L448.754 58H446.416L450.784 47.5H453.01L457.392 58ZM451.904 50.244L450.56 53.576H453.248L451.904 50.244ZM459.611 47.5H467.241V58H464.973V49.642H461.683L461.417 53.576C461.342 54.668 461.165 55.5407 460.885 56.194C460.614 56.8473 460.218 57.328 459.695 57.636C459.182 57.9347 458.514 58.084 457.693 58.084H457.637L457.427 55.886H457.483C457.912 55.886 458.239 55.8113 458.463 55.662C458.696 55.5127 458.869 55.2513 458.981 54.878C459.102 54.4953 459.186 53.9353 459.233 53.198L459.611 47.5ZM474.286 58.168C473.287 58.168 472.368 57.9253 471.528 57.44C470.688 56.9547 470.02 56.2967 469.526 55.466C469.031 54.6353 468.784 53.73 468.784 52.75C468.784 51.77 469.031 50.8693 469.526 50.048C470.02 49.2173 470.688 48.5593 471.528 48.074C472.368 47.5887 473.287 47.346 474.286 47.346C475.284 47.346 476.204 47.5887 477.044 48.074C477.893 48.5593 478.56 49.2173 479.046 50.048C479.54 50.8693 479.788 51.77 479.788 52.75C479.788 53.73 479.54 54.6353 479.046 55.466C478.56 56.2967 477.893 56.9547 477.044 57.44C476.204 57.9253 475.284 58.168 474.286 58.168ZM474.286 56.04C474.874 56.04 475.41 55.8953 475.896 55.606C476.39 55.3073 476.782 54.906 477.072 54.402C477.361 53.898 477.506 53.3473 477.506 52.75C477.506 52.162 477.361 51.616 477.072 51.112C476.782 50.608 476.39 50.2113 475.896 49.922C475.401 49.6233 474.864 49.474 474.286 49.474C473.698 49.474 473.156 49.6233 472.662 49.922C472.176 50.2113 471.789 50.608 471.5 51.112C471.22 51.6067 471.08 52.1527 471.08 52.75C471.08 53.3567 471.22 53.912 471.5 54.416C471.789 54.9107 472.176 55.3073 472.662 55.606C473.156 55.8953 473.698 56.04 474.286 56.04ZM483.601 49.642V58H481.333V47.5H488.305V49.642H483.601Z" fill="#141414"/>
<path d="M403.5 52.5C403.5 42.0066 412.007 33.5 422.5 33.5H503.5V71.5H422.5C412.007 71.5 403.5 62.9934 403.5 52.5Z" stroke="white"/>
<path d="M1055.88 54.9624C1056.85 53.511 1057.25 51.7484 1057 50.0182C1056.75 48.2881 1055.86 46.7141 1054.51 45.6031C1053.16 44.4921 1051.44 43.9236 1049.7 44.0083C1047.95 44.093 1046.3 44.8249 1045.06 46.0613C1043.82 47.2978 1043.09 48.9503 1043.01 50.6969C1042.92 52.4435 1043.49 54.159 1044.6 55.5093C1045.71 56.8596 1047.29 57.748 1049.02 58.0013C1050.75 58.2546 1052.51 57.8547 1053.96 56.8795L1056.62 59.5405C1056.88 59.7947 1057.22 59.9375 1057.58 59.9375C1057.94 59.9375 1058.29 59.7947 1058.54 59.5405C1058.79 59.2862 1058.94 58.9414 1058.94 58.5819C1058.94 58.2224 1058.79 57.8776 1058.54 57.6234L1055.88 54.9624ZM1050.04 56.4488C1048.98 56.4488 1047.93 56.1318 1047.04 55.538C1046.15 54.9441 1045.46 54.0999 1045.05 53.1123C1044.64 52.1247 1044.53 51.038 1044.74 49.9895C1044.95 48.9411 1045.47 47.9781 1046.22 47.2222C1046.98 46.4663 1047.94 45.9515 1048.99 45.743C1050.04 45.5344 1051.12 45.6415 1052.11 46.0506C1053.1 46.4596 1053.94 47.1524 1054.54 48.0412C1055.13 48.93 1055.45 49.975 1055.45 51.044C1055.45 52.477 1054.88 53.8508 1053.86 54.864C1052.85 55.8773 1051.48 56.4472 1050.04 56.4488Z" fill="white"/>
<path d="M504.5 33.5H1055.5C1065.99 33.5 1074.5 42.0066 1074.5 52.5C1074.5 62.9934 1065.99 71.5 1055.5 71.5H504.5V33.5Z" stroke="white"/> -->
<!-- <path fill-rule="evenodd" clip-rule="evenodd" d="M1268.14 46.9241C1269.78 45.7401 1270.85 43.776 1270.85 41.5517C1270.85 37.931 1268.01 35 1264.5 35C1260.99 35 1258.15 37.931 1258.15 41.5517C1258.15 43.776 1259.22 45.7401 1260.86 46.9241C1261.22 47.1855 1261.61 47.4089 1262.03 47.5887C1262.79 47.9202 1263.62 48.1034 1264.5 48.1034C1265.38 48.1034 1266.21 47.9202 1266.97 47.5887C1267.39 47.4089 1267.78 47.1855 1268.14 46.9241ZM1268.59 49.0117C1268.07 48.9134 1267.53 48.8621 1266.97 48.8621H1262.03C1261.47 48.8621 1260.93 48.9134 1260.41 49.0117C1256.2 49.7995 1253 53.6043 1253 58.1724V61.9655C1253 62.5517 1253.43 63 1254 63H1275C1275.57 63 1276 62.5517 1276 61.9655V58.1724C1276 53.6043 1272.8 49.7995 1268.59 49.0117ZM1264.5 37C1262.15 37 1260.15 38.9767 1260.15 41.5517C1260.15 44.1267 1262.15 46.1034 1264.5 46.1034C1266.85 46.1034 1268.85 44.1267 1268.85 41.5517C1268.85 38.9767 1266.85 37 1264.5 37ZM1266.97 50.8621H1262.03C1258.21 50.8621 1255 54.0802 1255 58.1724V61H1274V58.1724C1274 54.0802 1270.79 50.8621 1266.97 50.8621Z" fill="white"/> -->
<!-- <path d="M1312.7 37C1310.72 37 1308.75 37.7616 1307.25 39.2669C1304.25 42.2774 1304.25 47.1422 1307.25 50.1547L1318.72 61.6791C1318.82 61.7807 1318.94 61.8614 1319.07 61.9165C1319.21 61.9716 1319.35 62 1319.49 62C1319.64 62 1319.78 61.9716 1319.91 61.9165C1320.05 61.8614 1320.17 61.7807 1320.27 61.6791C1324.1 57.8391 1327.92 54.0059 1331.75 50.1659C1334.75 47.1554 1334.75 42.2886 1331.75 39.2781C1328.75 36.2675 1323.84 36.2675 1320.84 39.2781L1319.5 40.6181L1318.15 39.2669C1316.65 37.7616 1314.68 37 1312.7 37ZM1312.7 39.1217C1314.1 39.1217 1315.51 39.6684 1316.6 40.7633L1318.73 42.8962C1318.83 42.9978 1318.95 43.0785 1319.08 43.1336C1319.22 43.1887 1319.36 43.2171 1319.5 43.2171C1319.65 43.2171 1319.79 43.1887 1319.93 43.1336C1320.06 43.0785 1320.18 42.9978 1320.28 42.8962L1322.39 40.7745C1324.57 38.5847 1328.01 38.5848 1330.2 40.7745C1332.38 42.9641 1332.38 46.4687 1330.2 48.6584C1326.63 52.2373 1323.07 55.8221 1319.5 59.4011L1308.8 48.6472C1306.62 46.4545 1306.62 42.9529 1308.8 40.7633C1309.89 39.6684 1311.29 39.1217 1312.7 39.1217Z" fill="white"/> -->
<!-- <path fill-rule="evenodd" clip-rule="evenodd" d="M1372 57.0003C1370.34 57.0003 1369 58.3443 1369 60.0003C1369 61.6563 1370.34 63.0003 1372 63.0003C1373.65 63.0003 1375 61.6563 1375 60.0003C1375 58.3443 1373.65 57.0003 1372 57.0003ZM1372 59.0003C1372.55 59.0003 1373 59.4483 1373 60.0003C1373 60.5523 1372.55 61.0003 1372 61.0003C1371.45 61.0003 1371 60.5523 1371 60.0003C1371 59.4483 1371.45 59.0003 1372 59.0003Z" fill="white"/> -->
<!-- <path fill-rule="evenodd" clip-rule="evenodd" d="M1384 57.0003C1382.34 57.0003 1381 58.3443 1381 60.0003C1381 61.6563 1382.34 63.0003 1384 63.0003C1385.65 63.0003 1387 61.6563 1387 60.0003C1387 58.3443 1385.65 57.0003 1384 57.0003ZM1384 59.0003C1384.55 59.0003 1385 59.4483 1385 60.0003C1385 60.5523 1384.55 61.0003 1384 61.0003C1383.45 61.0003 1383 60.5523 1383 60.0003C1383 59.4483 1383.45 59.0003 1384 59.0003Z" fill="white"/> -->
<!-- <path fill-rule="evenodd" clip-rule="evenodd" d="M1364.29 36.836C1364.59 38.611 1367.68 53.629 1367.68 53.629C1367.98 55.012 1369.2 56 1370.62 56C1374.04 56 1381.96 56 1385.38 56C1386.8 56 1388.02 55.012 1388.32 53.629L1390.46 43.629C1390.65 42.743 1390.43 41.819 1389.86 41.114C1389.29 40.409 1388.43 40 1387.53 40H1366.85L1366.26 36.507C1366.02 35.06 1364.77 34 1363.31 34C1362.63 34 1362 34 1362 34C1361.45 34 1361 34.448 1361 35C1361 35.552 1361.45 36 1362 36H1363.31C1363.8 36 1364.21 36.353 1364.29 36.836ZM1388.5 43.21L1386.36 53.21C1386.26 53.671 1385.86 54 1385.38 54C1381.96 54 1374.04 54 1370.62 54C1370.14 54 1369.74 53.671 1369.64 53.21L1367.24 42H1387.53C1387.83 42 1388.11 42.136 1388.3 42.371C1388.49 42.606 1388.57 42.914 1388.5 43.21Z" fill="white"/> -->
</svg>
