<svg width="711" height="286" viewBox="0 0 411 286" fill="none" xmlns="http://www.w3.org/2000/svg">
<rect width="711" height="286" transform="translate(0.5)" fill="#141414"/>
<path d="M344.333 128.728V118H350.165V145H344.333V134.236H332.489V145H326.657V118H332.489V128.728H344.333ZM372.632 135.856C372.632 136.408 372.548 137.044 372.38 137.764H359.024C359.336 138.7 359.876 139.432 360.644 139.96C361.412 140.464 362.336 140.716 363.416 140.716C364.328 140.716 365.132 140.536 365.828 140.176C366.548 139.816 367.124 139.3 367.556 138.628L371.336 141.868C370.448 142.996 369.332 143.872 367.988 144.496C366.668 145.096 365.204 145.396 363.596 145.396C361.724 145.396 360.02 144.976 358.484 144.136C356.948 143.296 355.736 142.144 354.848 140.68C353.96 139.192 353.516 137.56 353.516 135.784C353.516 134.032 353.936 132.424 354.776 130.96C355.64 129.496 356.804 128.332 358.268 127.468C359.756 126.604 361.376 126.172 363.128 126.172C364.904 126.172 366.512 126.604 367.952 127.468C369.392 128.332 370.532 129.508 371.372 130.996C372.212 132.484 372.632 134.104 372.632 135.856ZM363.128 130.888C362.144 130.888 361.292 131.14 360.572 131.644C359.876 132.148 359.372 132.844 359.06 133.732H367.196C366.884 132.844 366.368 132.148 365.648 131.644C364.952 131.14 364.112 130.888 363.128 130.888ZM373.822 126.568H389.986V131.716H384.658V145H379.186V131.716H373.822V126.568ZM411.428 126.172C413.06 126.172 414.584 126.616 416 127.504C417.416 128.368 418.532 129.544 419.348 131.032C420.188 132.496 420.608 134.092 420.608 135.82C420.608 137.524 420.188 139.12 419.348 140.608C418.532 142.072 417.416 143.248 416 144.136C414.584 145 413.048 145.432 411.392 145.432C409.544 145.432 408.056 144.844 406.928 143.668V153.1H401.456V126.568H406.748V128.116C407.9 126.82 409.46 126.172 411.428 126.172ZM410.744 140.248C411.968 140.248 413 139.816 413.84 138.952C414.704 138.064 415.136 137.008 415.136 135.784C415.136 134.56 414.704 133.516 413.84 132.652C413 131.764 411.968 131.32 410.744 131.32C409.976 131.32 409.244 131.524 408.548 131.932C407.876 132.316 407.336 132.856 406.928 133.552V138.016C407.336 138.712 407.876 139.264 408.548 139.672C409.244 140.056 409.976 140.248 410.744 140.248ZM441.889 135.856C441.889 136.408 441.805 137.044 441.637 137.764H428.281C428.593 138.7 429.133 139.432 429.901 139.96C430.669 140.464 431.593 140.716 432.673 140.716C433.585 140.716 434.389 140.536 435.085 140.176C435.805 139.816 436.381 139.3 436.813 138.628L440.593 141.868C439.705 142.996 438.589 143.872 437.245 144.496C435.925 145.096 434.461 145.396 432.853 145.396C430.981 145.396 429.277 144.976 427.741 144.136C426.205 143.296 424.993 142.144 424.105 140.68C423.217 139.192 422.773 137.56 422.773 135.784C422.773 134.032 423.193 132.424 424.033 130.96C424.897 129.496 426.061 128.332 427.525 127.468C429.013 126.604 430.633 126.172 432.385 126.172C434.161 126.172 435.769 126.604 437.209 127.468C438.649 128.332 439.789 129.508 440.629 130.996C441.469 132.484 441.889 134.104 441.889 135.856ZM432.385 130.888C431.401 130.888 430.549 131.14 429.829 131.644C429.133 132.148 428.629 132.844 428.317 133.732H436.453C436.141 132.844 435.625 132.148 434.905 131.644C434.209 131.14 433.369 130.888 432.385 130.888ZM458.949 135.532C459.669 135.988 460.221 136.564 460.605 137.26C460.989 137.932 461.181 138.688 461.181 139.528C461.181 140.68 460.821 141.712 460.101 142.624C459.381 143.512 458.373 144.208 457.077 144.712C455.805 145.192 454.329 145.432 452.649 145.432C450.201 145.432 448.173 144.892 446.565 143.812C444.981 142.708 443.973 141.184 443.541 139.24L447.645 137.476C447.981 138.7 448.533 139.576 449.301 140.104C450.093 140.608 451.209 140.86 452.649 140.86C453.705 140.86 454.509 140.716 455.061 140.428C455.637 140.14 455.925 139.732 455.925 139.204C455.925 138.316 455.217 137.872 453.801 137.872H450.309V133.696H453.369C454.041 133.696 454.557 133.576 454.917 133.336C455.277 133.096 455.457 132.748 455.457 132.292C455.457 131.788 455.217 131.404 454.737 131.14C454.257 130.852 453.573 130.708 452.685 130.708C451.341 130.708 450.285 130.984 449.517 131.536C448.749 132.064 448.197 132.916 447.861 134.092L443.757 132.328C444.189 130.384 445.185 128.872 446.745 127.792C448.329 126.712 450.309 126.172 452.685 126.172C454.221 126.172 455.589 126.412 456.789 126.892C457.989 127.372 458.913 128.056 459.561 128.944C460.233 129.808 460.569 130.804 460.569 131.932C460.569 133.372 460.029 134.572 458.949 135.532ZM472.182 135.964L476.754 126.568H482.658L469.734 153.1H463.83L469.266 141.94L461.454 126.568H467.43L472.182 135.964ZM485.354 126.568H500.474V145H495.002V131.716H490.25L489.962 136.108C489.722 139.42 489.014 141.808 487.838 143.272C486.686 144.712 484.886 145.432 482.438 145.432H482.33L481.79 140.068H481.934C482.846 140.068 483.53 139.708 483.986 138.988C484.442 138.268 484.718 137.056 484.814 135.352L485.354 126.568ZM514.794 132.184C516.018 132.184 517.122 132.46 518.106 133.012C519.09 133.564 519.858 134.332 520.41 135.316C520.986 136.276 521.274 137.356 521.274 138.556C521.274 139.756 520.986 140.848 520.41 141.832C519.858 142.816 519.09 143.596 518.106 144.172C517.122 144.724 516.018 145 514.794 145H504.57V126.568H509.898V132.184H514.794ZM513.93 140.536C514.554 140.536 515.058 140.356 515.442 139.996C515.85 139.636 516.054 139.168 516.054 138.592C516.054 137.992 515.85 137.512 515.442 137.152C515.058 136.792 514.554 136.612 513.93 136.612H509.898V140.536H513.93ZM520.986 126.568H537.15V131.716H531.822V145H526.35V131.716H520.986V126.568ZM552.191 126.568H557.519V145H552.191V143.524C551.039 144.796 549.491 145.432 547.547 145.432C545.891 145.432 544.355 145 542.939 144.136C541.523 143.248 540.395 142.072 539.555 140.608C538.739 139.12 538.331 137.524 538.331 135.82C538.331 134.092 538.751 132.496 539.591 131.032C540.431 129.544 541.559 128.368 542.975 127.504C544.391 126.616 545.915 126.172 547.547 126.172C549.491 126.172 551.039 126.808 552.191 128.08V126.568ZM548.195 140.248C548.987 140.248 549.719 140.044 550.391 139.636C551.087 139.228 551.639 138.676 552.047 137.98V133.588C551.639 132.892 551.087 132.34 550.391 131.932C549.719 131.524 548.987 131.32 548.195 131.32C547.403 131.32 546.671 131.524 545.999 131.932C545.327 132.34 544.787 132.892 544.379 133.588C543.995 134.26 543.803 134.992 543.803 135.784C543.803 136.576 543.995 137.32 544.379 138.016C544.787 138.688 545.327 139.228 545.999 139.636C546.671 140.044 547.403 140.248 548.195 140.248ZM560.08 126.568H576.244V131.716H570.916V145H565.444V131.716H560.08V126.568ZM587.253 145.432C585.477 145.432 583.833 145 582.321 144.136C580.833 143.272 579.645 142.108 578.757 140.644C577.869 139.156 577.425 137.536 577.425 135.784C577.425 134.032 577.869 132.424 578.757 130.96C579.645 129.496 580.833 128.332 582.321 127.468C583.833 126.604 585.477 126.172 587.253 126.172C589.029 126.172 590.661 126.604 592.149 127.468C593.661 128.332 594.861 129.508 595.749 130.996C596.637 132.46 597.081 134.056 597.081 135.784C597.081 137.512 596.637 139.12 595.749 140.608C594.885 142.096 593.697 143.272 592.185 144.136C590.673 145 589.029 145.432 587.253 145.432ZM587.253 140.248C588.021 140.248 588.741 140.044 589.413 139.636C590.085 139.228 590.613 138.688 590.997 138.016C591.405 137.32 591.609 136.576 591.609 135.784C591.609 134.992 591.405 134.26 590.997 133.588C590.613 132.892 590.085 132.34 589.413 131.932C588.741 131.524 588.021 131.32 587.253 131.32C586.485 131.32 585.765 131.524 585.093 131.932C584.421 132.34 583.881 132.892 583.473 133.588C583.089 134.26 582.897 134.992 582.897 135.784C582.897 137.008 583.317 138.064 584.157 138.952C585.021 139.816 586.053 140.248 587.253 140.248ZM614.775 135.604C615.423 136.06 615.927 136.636 616.287 137.332C616.671 138.004 616.863 138.76 616.863 139.6C616.863 140.608 616.599 141.532 616.071 142.372C615.567 143.188 614.859 143.836 613.947 144.316C613.059 144.772 612.075 145 610.995 145H600.159V126.568H610.491C611.571 126.568 612.555 126.808 613.443 127.288C614.355 127.744 615.063 128.392 615.567 129.232C616.095 130.048 616.359 130.96 616.359 131.968C616.359 133.456 615.831 134.668 614.775 135.604ZM605.343 130.708V133.984H609.591C610.119 133.984 610.527 133.84 610.815 133.552C611.127 133.24 611.283 132.832 611.283 132.328C611.283 131.848 611.127 131.464 610.815 131.176C610.527 130.864 610.119 130.708 609.591 130.708H605.343ZM610.095 140.86C610.623 140.86 611.031 140.716 611.319 140.428C611.631 140.14 611.787 139.744 611.787 139.24C611.787 138.76 611.631 138.376 611.319 138.088C611.031 137.776 610.623 137.62 610.095 137.62H605.343V140.86H610.095Z" fill="white"/>
<path d="M253.166 169.494H251.348V163.5H249.782V177H251.348V171.006H253.166L258.062 177H260.006L254.498 170.25L260.006 163.5H258.062L253.166 169.494ZM270.239 177.162C272.075 177.162 273.713 176.028 274.415 174.372L273.065 173.706C272.615 174.912 271.517 175.722 270.239 175.722C268.547 175.722 267.179 174.264 267.179 172.518C267.179 170.772 268.547 169.35 270.239 169.35C271.517 169.35 272.597 170.16 273.047 171.33L274.415 170.664C273.713 169.026 272.093 167.892 270.239 167.892C267.737 167.892 265.667 169.98 265.667 172.518C265.667 175.074 267.737 177.162 270.239 177.162ZM280.417 177.162C282.955 177.162 285.025 175.074 285.025 172.518C285.025 169.98 282.937 167.892 280.417 167.892C277.897 167.892 275.809 169.98 275.809 172.518C275.809 175.074 277.879 177.162 280.417 177.162ZM280.417 175.722C278.707 175.722 277.321 174.282 277.321 172.518C277.321 170.772 278.707 169.35 280.417 169.35C282.127 169.35 283.513 170.772 283.513 172.536C283.513 174.282 282.127 175.722 280.417 175.722ZM293.778 171.798H292.896V168.072H291.384V171.798H290.502L287.496 168.072H285.624L289.224 172.536L285.624 177H287.514L290.52 173.238H291.384V177H292.896V173.238H293.76L296.766 177H298.656L295.056 172.536L298.656 168.072H296.784L293.778 171.798ZM306.548 169.134C305.918 168.324 304.964 167.892 303.812 167.892C301.31 167.892 299.258 169.98 299.258 172.536C299.258 175.092 301.31 177.162 303.812 177.162C304.964 177.162 305.918 176.73 306.548 175.92V177H308.06V168.072H306.548V169.134ZM303.866 175.722C302.156 175.722 300.77 174.282 300.77 172.536C300.77 170.772 302.156 169.35 303.866 169.35C305 169.35 306.026 169.98 306.548 170.97V174.102C306.026 175.074 305 175.722 303.866 175.722ZM311.648 172.734C311.504 174.858 311.018 175.668 309.902 175.668H309.83L309.992 177.162H310.064C312.008 177.162 312.926 175.848 313.142 172.68L313.358 169.494H316.994V177H318.506V168.072H311.972L311.648 172.734ZM329.47 172.338C329.47 169.89 327.526 167.892 325.096 167.892C322.63 167.892 320.722 169.872 320.722 172.536C320.722 175.182 322.684 177.162 325.312 177.162C326.896 177.162 328.228 176.424 329.056 175.164L327.886 174.21C327.31 175.146 326.374 175.722 325.24 175.722C323.656 175.722 322.468 174.642 322.27 173.04H329.398C329.434 172.806 329.47 172.536 329.47 172.338ZM325.096 169.35C326.482 169.35 327.598 170.322 327.922 171.69H322.324C322.63 170.286 323.71 169.35 325.096 169.35ZM333.147 171.798V168.072H331.635V177H333.147V173.238H337.701V177H339.213V168.072H337.701V171.798H333.147ZM342.059 177H343.571L348.161 170.34V177H349.673V168.072H348.071L343.571 174.624V168.072H342.059V177ZM360.33 167.892C358.044 167.892 356.118 169.602 355.758 171.798H354.03V168.072H352.518V177H354.03V173.238H355.758C356.1 175.47 358.026 177.162 360.33 177.162C362.85 177.162 364.92 175.092 364.92 172.518C364.92 169.98 362.85 167.892 360.33 167.892ZM360.33 175.722C358.602 175.722 357.216 174.282 357.216 172.518C357.216 170.754 358.62 169.35 360.33 169.35C362.04 169.35 363.408 170.772 363.408 172.518C363.408 174.282 362.04 175.722 360.33 175.722ZM367.792 179.052L369.052 174.426H367.54L366.334 179.052H367.792ZM376.494 168.072V177H378.006V169.494H382.47V177H383.982V168.072H376.494ZM390.79 177.162C393.328 177.162 395.398 175.074 395.398 172.518C395.398 169.98 393.31 167.892 390.79 167.892C388.27 167.892 386.182 169.98 386.182 172.518C386.182 175.074 388.252 177.162 390.79 177.162ZM390.79 175.722C389.08 175.722 387.694 174.282 387.694 172.518C387.694 170.772 389.08 169.35 390.79 169.35C392.5 169.35 393.886 170.772 393.886 172.536C393.886 174.282 392.5 175.722 390.79 175.722ZM409.021 172.446C409.597 172.014 409.939 171.366 409.939 170.592C409.939 169.17 408.787 168.072 407.329 168.072H402.703V177H407.581C409.039 177 410.191 175.902 410.191 174.498C410.191 173.616 409.741 172.878 409.021 172.446ZM407.203 169.494C407.959 169.494 408.427 169.962 408.427 170.682C408.427 171.384 407.959 171.852 407.203 171.852H404.215V169.494H407.203ZM404.215 175.56V173.202H407.455C408.211 173.202 408.679 173.67 408.679 174.39C408.679 175.11 408.211 175.56 407.455 175.56H404.215ZM419.066 169.134C418.436 168.324 417.482 167.892 416.33 167.892C413.828 167.892 411.776 169.98 411.776 172.536C411.776 175.092 413.828 177.162 416.33 177.162C417.482 177.162 418.436 176.73 419.066 175.92V177H420.578V168.072H419.066V169.134ZM416.384 175.722C414.674 175.722 413.288 174.282 413.288 172.536C413.288 170.772 414.674 169.35 416.384 169.35C417.518 169.35 418.544 169.98 419.066 170.97V174.102C418.544 175.074 417.518 175.722 416.384 175.722ZM430.592 175.56V168.072H429.08V175.56H424.94V168.072H423.428V177H436.244V168.072H434.732V175.56H430.592ZM447.208 172.338C447.208 169.89 445.264 167.892 442.834 167.892C440.368 167.892 438.46 169.872 438.46 172.536C438.46 175.182 440.422 177.162 443.05 177.162C444.634 177.162 445.966 176.424 446.794 175.164L445.624 174.21C445.048 175.146 444.112 175.722 442.978 175.722C441.394 175.722 440.206 174.642 440.008 173.04H447.136C447.172 172.806 447.208 172.536 447.208 172.338ZM442.834 169.35C444.22 169.35 445.336 170.322 445.66 171.69H440.062C440.368 170.286 441.448 169.35 442.834 169.35ZM458.733 168.072H457.149L454.377 174.894L451.605 168.072H450.021L448.797 177H450.309L451.173 170.736L453.711 177H455.043L457.581 170.736L458.445 177H459.957L458.733 168.072ZM462.374 168.072H460.7L464.516 175.632L461.834 181.05H463.49L469.88 168.072H468.242L465.326 173.958L462.374 168.072ZM481.727 172.41C482.339 171.978 482.699 171.33 482.699 170.556C482.699 168.99 481.295 167.892 479.261 167.892C477.137 167.892 475.697 168.972 475.355 170.772L476.687 171.24C476.975 169.98 477.821 169.35 479.279 169.35C480.467 169.35 481.187 169.836 481.187 170.628C481.187 171.366 480.539 171.816 479.477 171.816H478.037V173.238H479.891C480.953 173.238 481.547 173.652 481.547 174.354C481.547 175.2 480.683 175.722 479.243 175.722C477.731 175.722 476.813 175.092 476.507 173.796L475.175 174.282C475.553 176.064 477.083 177.162 479.261 177.162C481.529 177.162 483.059 176.082 483.059 174.462C483.059 173.526 482.555 172.806 481.727 172.41ZM491.91 169.134C491.28 168.324 490.326 167.892 489.174 167.892C486.672 167.892 484.62 169.98 484.62 172.536C484.62 175.092 486.672 177.162 489.174 177.162C490.326 177.162 491.28 176.73 491.91 175.92V177H493.422V168.072H491.91V169.134ZM489.228 175.722C487.518 175.722 486.132 174.282 486.132 172.536C486.132 170.772 487.518 169.35 489.228 169.35C490.362 169.35 491.388 169.98 491.91 170.97V174.102C491.388 175.074 490.362 175.722 489.228 175.722ZM496.272 168.072V177H497.784V169.494H502.248V177H503.76V168.072H496.272ZM510.856 167.892C509.704 167.892 508.768 168.324 508.12 169.134V168.072H506.608V181.05H508.12V175.92C508.768 176.73 509.704 177.162 510.856 177.162C513.358 177.162 515.41 175.092 515.41 172.536C515.41 169.98 513.358 167.892 510.856 167.892ZM510.802 175.722C509.668 175.722 508.642 175.074 508.12 174.084V170.988C508.642 169.998 509.668 169.35 510.802 169.35C512.512 169.35 513.898 170.772 513.898 172.536C513.898 174.282 512.512 175.722 510.802 175.722ZM521.571 177.162C524.109 177.162 526.179 175.074 526.179 172.518C526.179 169.98 524.091 167.892 521.571 167.892C519.051 167.892 516.963 169.98 516.963 172.518C516.963 175.074 519.033 177.162 521.571 177.162ZM521.571 175.722C519.861 175.722 518.475 174.282 518.475 172.518C518.475 170.772 519.861 169.35 521.571 169.35C523.281 169.35 524.667 170.772 524.667 172.536C524.667 174.282 523.281 175.722 521.571 175.722ZM532.311 177.162C534.147 177.162 535.785 176.028 536.487 174.372L535.137 173.706C534.687 174.912 533.589 175.722 532.311 175.722C530.619 175.722 529.251 174.264 529.251 172.518C529.251 170.772 530.619 169.35 532.311 169.35C533.589 169.35 534.669 170.16 535.119 171.33L536.487 170.664C535.785 169.026 534.165 167.892 532.311 167.892C529.809 167.892 527.739 169.98 527.739 172.518C527.739 175.074 529.809 177.162 532.311 177.162ZM538.856 168.072H537.182L540.998 175.632L538.316 181.05H539.972L546.362 168.072H544.724L541.808 173.958L538.856 168.072ZM554.051 171.798V168.072H552.539V177H554.051V173.238H558.605V177H560.117V168.072H558.605V171.798H554.051ZM571.081 172.338C571.081 169.89 569.137 167.892 566.707 167.892C564.241 167.892 562.333 169.872 562.333 172.536C562.333 175.182 564.295 177.162 566.923 177.162C568.507 177.162 569.839 176.424 570.667 175.164L569.497 174.21C568.921 175.146 567.985 175.722 566.851 175.722C565.267 175.722 564.079 174.642 563.881 173.04H571.009C571.045 172.806 571.081 172.536 571.081 172.338ZM566.707 169.35C568.093 169.35 569.209 170.322 569.533 171.69H563.935C564.241 170.286 565.321 169.35 566.707 169.35ZM571.866 168.072V169.494H574.854V177H576.366V169.494H579.336V168.072H571.866ZM590.01 167.892C588.858 167.892 587.922 168.324 587.274 169.134V168.072H585.762V181.05H587.274V175.92C587.922 176.73 588.858 177.162 590.01 177.162C592.512 177.162 594.564 175.092 594.564 172.536C594.564 169.98 592.512 167.892 590.01 167.892ZM589.956 175.722C588.822 175.722 587.796 175.074 587.274 174.084V170.988C587.796 169.998 588.822 169.35 589.956 169.35C591.666 169.35 593.052 170.772 593.052 172.536C593.052 174.282 591.666 175.722 589.956 175.722ZM604.884 172.338C604.884 169.89 602.94 167.892 600.51 167.892C598.044 167.892 596.136 169.872 596.136 172.536C596.136 175.182 598.098 177.162 600.726 177.162C602.31 177.162 603.642 176.424 604.47 175.164L603.3 174.21C602.724 175.146 601.788 175.722 600.654 175.722C599.07 175.722 597.882 174.642 597.684 173.04H604.812C604.848 172.806 604.884 172.536 604.884 172.338ZM600.51 169.35C601.896 169.35 603.012 170.322 603.336 171.69H597.738C598.044 170.286 599.124 169.35 600.51 169.35ZM612.719 172.41C613.331 171.978 613.691 171.33 613.691 170.556C613.691 168.99 612.287 167.892 610.253 167.892C608.129 167.892 606.689 168.972 606.347 170.772L607.679 171.24C607.967 169.98 608.813 169.35 610.271 169.35C611.459 169.35 612.179 169.836 612.179 170.628C612.179 171.366 611.531 171.816 610.469 171.816H609.029V173.238H610.883C611.945 173.238 612.539 173.652 612.539 174.354C612.539 175.2 611.675 175.722 610.235 175.722C608.723 175.722 607.805 175.092 607.499 173.796L606.167 174.282C606.545 176.064 608.075 177.162 610.253 177.162C612.521 177.162 614.051 176.082 614.051 174.462C614.051 173.526 613.547 172.806 612.719 172.41ZM616.516 168.072H614.842L618.658 175.632L615.976 181.05H617.632L624.022 168.072H622.384L619.468 173.958L616.516 168.072ZM625.752 172.734C625.608 174.858 625.122 175.668 624.006 175.668H623.934L624.096 177.162H624.168C626.112 177.162 627.03 175.848 627.246 172.68L627.462 169.494H631.098V177H632.61V168.072H626.076L625.752 172.734ZM636.967 171.204V168.072H635.455V177H639.937C641.611 177 642.907 175.74 642.907 174.102C642.907 172.464 641.611 171.204 639.937 171.204H636.967ZM636.967 175.56V172.644H639.793C640.747 172.644 641.395 173.22 641.395 174.102C641.395 174.984 640.747 175.56 639.793 175.56H636.967ZM642.706 168.072V169.494H645.694V177H647.206V169.494H650.176V168.072H642.706ZM658.269 169.134C657.639 168.324 656.685 167.892 655.533 167.892C653.031 167.892 650.979 169.98 650.979 172.536C650.979 175.092 653.031 177.162 655.533 177.162C656.685 177.162 657.639 176.73 658.269 175.92V177H659.781V168.072H658.269V169.134ZM655.587 175.722C653.877 175.722 652.491 174.282 652.491 172.536C652.491 170.772 653.877 169.35 655.587 169.35C656.721 169.35 657.747 169.98 658.269 170.97V174.102C657.747 175.074 656.721 175.722 655.587 175.722ZM661.497 168.072V169.494H664.485V177H665.997V169.494H668.967V168.072H661.497ZM674.378 177.162C676.916 177.162 678.986 175.074 678.986 172.518C678.986 169.98 676.898 167.892 674.378 167.892C671.858 167.892 669.77 169.98 669.77 172.518C669.77 175.074 671.84 177.162 674.378 177.162ZM674.378 175.722C672.668 175.722 671.282 174.282 671.282 172.518C671.282 170.772 672.668 169.35 674.378 169.35C676.088 169.35 677.474 170.772 677.474 172.536C677.474 174.282 676.088 175.722 674.378 175.722ZM687.494 172.446C688.07 172.014 688.412 171.366 688.412 170.592C688.412 169.17 687.26 168.072 685.802 168.072H681.176V177H686.054C687.512 177 688.664 175.902 688.664 174.498C688.664 173.616 688.214 172.878 687.494 172.446ZM685.676 169.494C686.432 169.494 686.9 169.962 686.9 170.682C686.9 171.384 686.432 171.852 685.676 171.852H682.688V169.494H685.676ZM682.688 175.56V173.202H685.928C686.684 173.202 687.152 173.67 687.152 174.39C687.152 175.11 686.684 175.56 685.928 175.56H682.688ZM692.463 177V174.426H690.951V177H692.463Z" fill="white"/>
<path d="M461.326 70.3163H455.372C454.553 70.3163 453.884 70.9794 453.884 71.7898V77.6837C453.884 78.4941 454.553 79.1571 455.372 79.1571H461.326C462.144 79.1571 462.814 78.4941 462.814 77.6837V71.7898C462.814 70.9794 462.144 70.3163 461.326 70.3163ZM459.837 76.2102H456.86V73.2632H459.837V76.2102ZM501.512 71.7898H495.558V65.8959C495.558 65.0855 494.888 64.4224 494.07 64.4224H488.116V60.002C488.116 59.1916 487.447 58.5285 486.628 58.5285H482.163V55.5816H486.628C487.447 55.5816 488.116 54.9185 488.116 54.1081V48.2142C488.116 47.4038 487.447 46.7407 486.628 46.7407H480.674C479.856 46.7407 479.186 47.4038 479.186 48.2142V52.6346H474.721C473.902 52.6346 473.233 53.2977 473.233 54.1081V58.5285H468.767V54.1081C468.767 53.2977 468.098 52.6346 467.279 52.6346H462.814V48.2142C462.814 47.4038 462.144 46.7407 461.326 46.7407H455.372C454.553 46.7407 453.884 47.4038 453.884 48.2142V54.1081C453.884 54.9185 454.553 55.5816 455.372 55.5816H459.837V58.5285H455.372C454.553 58.5285 453.884 59.1916 453.884 60.002V64.4224H447.93C447.112 64.4224 446.442 65.0855 446.442 65.8959V71.7898H440.488C439.67 71.7898 439 72.4528 439 73.2632V93.8919C439 94.7023 439.67 95.3653 440.488 95.3653H446.442C447.26 95.3653 447.93 94.7023 447.93 93.8919V85.051H452.395V93.8919C452.395 94.7023 453.065 95.3653 453.884 95.3653H458.349V99.7858C458.349 100.596 459.019 101.259 459.837 101.259H465.791C466.609 101.259 467.279 100.596 467.279 99.7858V93.8919C467.279 93.0815 466.609 92.4184 465.791 92.4184H461.326V89.4715H480.674V92.4184H476.209C475.391 92.4184 474.721 93.0815 474.721 93.8919V99.7858C474.721 100.596 475.391 101.259 476.209 101.259H482.163C482.981 101.259 483.651 100.596 483.651 99.7858V95.3653H488.116C488.935 95.3653 489.605 94.7023 489.605 93.8919V85.051H494.07V93.8919C494.07 94.7023 494.74 95.3653 495.558 95.3653H501.512C502.33 95.3653 503 94.7023 503 93.8919V73.2632C503 72.4528 502.33 71.7898 501.512 71.7898ZM482.163 49.6877H485.14V52.6346H482.163V49.6877ZM456.86 49.6877H459.837V52.6346H456.86V49.6877ZM464.302 98.3123H461.326V95.3653H464.302V98.3123ZM480.674 98.3123H477.698V95.3653H480.674V98.3123ZM497.047 92.4184V83.5776C497.047 82.7671 496.377 82.1041 495.558 82.1041H488.116C487.298 82.1041 486.628 82.7671 486.628 83.5776V92.4184H483.651V87.998C483.651 87.1876 482.981 86.5245 482.163 86.5245H459.837C459.019 86.5245 458.349 87.1876 458.349 87.998V92.4184H455.372V83.5776C455.372 82.7671 454.702 82.1041 453.884 82.1041H446.442C445.623 82.1041 444.953 82.7671 444.953 83.5776V92.4184H441.977V74.7367H447.93C448.749 74.7367 449.419 74.0737 449.419 73.2632V67.3694H455.372C456.191 67.3694 456.86 66.7063 456.86 65.8959V61.4755H461.326C462.144 61.4755 462.814 60.8124 462.814 60.002V55.5816H465.791V60.002C465.791 60.8124 466.46 61.4755 467.279 61.4755H474.721C475.54 61.4755 476.209 60.8124 476.209 60.002V55.5816H479.186V60.002C479.186 60.8124 479.856 61.4755 480.674 61.4755H485.14V65.8959C485.14 66.7063 485.809 67.3694 486.628 67.3694H492.581V73.2632C492.581 74.0737 493.251 74.7367 494.07 74.7367H500.023V92.4184H497.047ZM486.628 70.3163H480.674C479.856 70.3163 479.186 70.9794 479.186 71.7898V77.6837C479.186 78.4941 479.856 79.1571 480.674 79.1571H486.628C487.447 79.1571 488.116 78.4941 488.116 77.6837V71.7898C488.116 70.9794 487.447 70.3163 486.628 70.3163ZM485.14 76.2102H482.163V73.2632H485.14V76.2102Z" fill="white"/>
</svg>
